#!OML:ASF I:\Actors\actors\Patient Classification 1\Patient 1\Session 1\Subject1.ASF
:FULLY-SPECIFIED
:DEGREES
959
root 0.628126 17.5132 9.57788 7.40433 3.45358 -6.2902
lowerback 3.57704 1.44765 10.3575
upperback -8.3708 2.78518 -1.42606
thorax -10.5584 0.421929 -7.71377
lowerneck -15.9146 -5.53939 -3.88244
upperneck 28.604 -9.60845 8.54411
head 12.8188 -3.59355 2.40982
rclavicle 6.55989e-015 -3.4191e-014
rhumerus -68.2382 -8.99249 -82.6815
rradius 51.1428
rwrist 11.7639
rhand -15.1594 -23.4233
rfingers 7.12502
rthumb 11.011 -53.1145
lclavicle 6.55989e-015 -3.4191e-014
lhumerus -64.2322 1.40168 78.5443
lradius 53.2984
lwrist 12.5474
lhand -41.3662 -39.2035
lfingers 7.12502
lthumb -14.2845 -9.71477
rfemur -2.51401 23.0452 24.3986
rtibia 6.07718
rfoot -14.5864 -26.6894
rtoes 3.79295
lfemur 3.69339 -34.3769 -12.875
ltibia -2.95435
lfoot -11.8141 37.8729
ltoes -7.6364
960
root 0.624387 17.5154 9.59179 7.22495 3.46016 -6.26973
lowerback 3.60918 1.45821 10.2552
upperback -8.39597 2.79299 -1.45202
thorax -10.6052 0.428907 -7.68785
lowerneck -15.7135 -5.58624 -3.86043
upperneck 28.4093 -9.66647 8.54612
head 12.7002 -3.62927 2.39819
rclavicle 4.07509e-015 -7.15625e-015
rhumerus -67.3829 -9.15099 -82.9548
rradius 48.796
rwrist 11.8304
rhand -14.6771 -23.0128
rfingers 7.12502
rthumb 11.4762 -52.6787
lclavicle 4.07509e-015 -7.15625e-015
lhumerus -63.0592 2.01185 78.115
lradius 50.785
lwrist 11.5741
lhand -41.287 -38.5254
lfingers 7.12502
lthumb -14.2082 -9.03137
rfemur -2.03998 23.3771 24.5723
rtibia 5.79245
rfoot -14.5724 -27.022
rtoes 4.1732
lfemur 3.99225 -34.1987 -13.0129
ltibia -3.00937
lfoot -11.8945 37.6714
ltoes -7.31955
961
root 0.627181 17.5145 9.60291 7.17257 3.62641 -6.21313
lowerback 3.48594 1.44996 10.2532
upperback -8.43758 2.76433 -1.51565
thorax -10.5821 0.411945 -7.74947
lowerneck -15.5619 -5.58673 -3.72562
upperneck 28.2658 -9.66412 8.45748
head 12.5964 -3.63431 2.34274
rclavicle -2.44505e-014 -3.97569e-015
rhumerus -66.602 -9.37923 -83.1648
rradius 46.6628
rwrist 12.1797
rhand -13.6861 -22.8827
rfingers 7.12502
rthumb 12.4318 -52.493
lclavicle -2.44505e-014 -3.97569e-015
lhumerus -61.8635 2.54054 77.8123
lradius 48.277
lwrist 10.814
lhand -41.1927 -38.088
lfingers 7.12502
lthumb -14.1174 -8.58761
rfemur -1.70778 23.6037 24.618
rtibia 5.47866
rfoot -14.638 -27.3762
rtoes 4.85127
lfemur 3.9883 -34.1363 -13.0786
ltibia -2.93292
lfoot -11.9125 37.4575
ltoes -7.09574
962
root 0.632279 17.5115 9.61087 7.17599 3.87555 -6.2098
lowerback 3.34328 1.43439 10.3699
upperback -8.49446 2.73616 -1.56954
thorax -10.5643 0.384807 -7.86752
lowerneck -15.4696 -5.67505 -3.97251
upperneck 28.1594 -9.78913 8.69904
head 12.5737 -3.69177 2.45694
rclavicle -5.96354e-016 -3.18055e-015
rhumerus -65.9208 -9.71072 -83.1604
rradius 44.7788
rwrist 12.6875
rhand -11.8623 -22.7662
rfingers 7.12502
rthumb 14.1897 -52.2615
lclavicle -5.96354e-016 -3.18055e-015
lhumerus -60.7309 2.90612 77.663
lradius 45.8801
lwrist 10.1732
lhand -41.0898 -37.591
lfingers 7.12502
lthumb -14.0182 -8.08366
rfemur -1.49926 23.7448 24.6736
rtibia 5.23483
rfoot -14.7493 -27.7202
rtoes 5.55178
lfemur 3.73811 -33.8982 -12.9363
ltibia -2.75465
lfoot -11.6823 37.0249
ltoes -7.67093
963
root 0.63436 17.5074 9.61753 7.19623 3.86067 -6.24635
lowerback 3.28047 1.49404 10.422
upperback -8.59384 2.81794 -1.5941
thorax -10.6215 0.411468 -7.93325
lowerneck -15.1817 -5.69809 -3.93918
upperneck 27.8671 -9.80095 8.69017
head 12.3938 -3.71308 2.44782
rclavicle -3.78685e-014 -7.95139e-015
rhumerus -65.2697 -10.0753 -82.9746
rradius 42.8864
rwrist 13.1571
rhand -9.58406 -22.2512
rfingers 7.12502
rthumb 16.3842 -51.5792
lclavicle -3.78685e-014 -7.95139e-015
lhumerus -59.6998 3.265 77.4906
lradius 43.5771
lwrist 9.392
lhand -40.9383 -37.2288
lfingers 7.12502
lthumb -13.8721 -7.71145
rfemur -1.45873 23.8087 24.7145
rtibia 5.17297
rfoot -14.7722 -27.7572
rtoes 5.8232
lfemur 3.62225 -33.653 -12.8258
ltibia -2.65037
lfoot -11.6044 36.8165
ltoes -7.93749
964
root 0.634152 17.4998 9.62051 7.36176 3.3643 -6.34995
lowerback 3.19682 1.68817 10.3683
upperback -8.75437 3.07768 -1.56331
thorax -10.7008 0.533124 -7.89587
lowerneck -15.0253 -5.71959 -3.84869
upperneck 27.7989 -9.81498 8.5685
head 12.3218 -3.73255 2.38658
rclavicle -1.23246e-014 2.70347e-014
rhumerus -64.5836 -10.2875 -82.8108
rradius 41.0116
rwrist 13.4171
rhand -7.34282 -21.7019
rfingers 7.12502
rthumb 18.5411 -50.8383
lclavicle -1.23246e-014 2.70347e-014
lhumerus -58.7742 3.76761 77.217
lradius 41.4229
lwrist 8.31938
lhand -40.7523 -36.9483
lfingers 7.12502
lthumb -13.6929 -7.41873
rfemur -1.8312 23.7428 24.6572
rtibia 5.37133
rfoot -14.5705 -27.2344
rtoes 5.19182
lfemur 3.68242 -33.6888 -12.7921
ltibia -2.72143
lfoot -11.9917 37.3137
ltoes -7.03825
965
root 0.635061 17.4947 9.62814 7.42928 3.39574 -6.41042
lowerback 3.01974 1.68673 10.3185
upperback -8.83324 3.06023 -1.50742
thorax -10.6914 0.530041 -7.79671
lowerneck -14.9676 -5.69157 -3.70151
upperneck 27.8083 -9.76193 8.39114
head 12.2895 -3.71742 2.30452
rclavicle 1.02374e-014 1.19271e-014
rhumerus -63.873 -10.3638 -82.6999
rradius 39.2798
rwrist 13.6251
rhand -5.56978 -21.476
rfingers 7.12502
rthumb 20.2459 -50.4408
lclavicle 1.02374e-014 1.19271e-014
lhumerus -57.9108 4.2967 76.9487
lradius 39.4444
lwrist 7.09073
lhand -40.5548 -36.4535
lfingers 7.12502
lthumb -13.5026 -6.91125
rfemur -1.85414 23.8006 24.72
rtibia 5.33496
rfoot -14.5776 -27.3117
rtoes 5.01757
lfemur 3.60816 -33.7207 -12.6803
ltibia -2.7045
lfoot -12.0574 37.3424
ltoes -6.81002
